<svg width="1280" height="640" viewBox="0 0 1280 640" fill="none" xmlns="http://www.w3.org/2000/svg" role="img" aria-labelledby="title desc">
  <title id="title">AI-Powered Third Brain V5</title>
  <desc id="desc">A minimalist dark technology hero image showing a flywheel from human brain to LLM Wiki to creative output.</desc>
  <defs>
    <linearGradient id="bg" x1="0" y1="0" x2="1280" y2="640" gradientUnits="userSpaceOnUse">
      <stop offset="0" stop-color="#070B18"/>
      <stop offset="0.46" stop-color="#121B3E"/>
      <stop offset="1" stop-color="#25134A"/>
    </linearGradient>
    <radialGradient id="glowBlue" cx="0" cy="0" r="1" gradientUnits="userSpaceOnUse" gradientTransform="translate(366 300) rotate(90) scale(230)">
      <stop stop-color="#38BDF8" stop-opacity="0.34"/>
      <stop offset="1" stop-color="#38BDF8" stop-opacity="0"/>
    </radialGradient>
    <radialGradient id="glowViolet" cx="0" cy="0" r="1" gradientUnits="userSpaceOnUse" gradientTransform="translate(640 300) rotate(90) scale(260)">
      <stop stop-color="#8B5CF6" stop-opacity="0.32"/>
      <stop offset="1" stop-color="#8B5CF6" stop-opacity="0"/>
    </radialGradient>
    <radialGradient id="glowGold" cx="0" cy="0" r="1" gradientUnits="userSpaceOnUse" gradientTransform="translate(914 300) rotate(90) scale(220)">
      <stop stop-color="#F59E0B" stop-opacity="0.28"/>
      <stop offset="1" stop-color="#F59E0B" stop-opacity="0"/>
    </radialGradient>
    <linearGradient id="card" x1="0" y1="0" x2="1" y2="1">
      <stop stop-color="#111A31" stop-opacity="0.94"/>
      <stop offset="1" stop-color="#15122A" stop-opacity="0.88"/>
    </linearGradient>
    <linearGradient id="stroke" x1="220" y1="180" x2="1060" y2="424" gradientUnits="userSpaceOnUse">
      <stop stop-color="#38BDF8"/>
      <stop offset="0.5" stop-color="#8B5CF6"/>
      <stop offset="1" stop-color="#F59E0B"/>
    </linearGradient>
    <filter id="softShadow" x="-30%" y="-30%" width="160%" height="160%">
      <feDropShadow dx="0" dy="24" stdDeviation="28" flood-color="#020617" flood-opacity="0.46"/>
    </filter>
    <filter id="iconGlow" x="-60%" y="-60%" width="220%" height="220%">
      <feGaussianBlur stdDeviation="3" result="blur"/>
      <feMerge>
        <feMergeNode in="blur"/>
        <feMergeNode in="SourceGraphic"/>
      </feMerge>
    </filter>
  </defs>

  <rect width="1280" height="640" rx="30" fill="url(#bg)"/>
  <rect width="1280" height="640" rx="30" fill="url(#glowBlue)"/>
  <rect width="1280" height="640" rx="30" fill="url(#glowViolet)"/>
  <rect width="1280" height="640" rx="30" fill="url(#glowGold)"/>

  <g opacity="0.16">
    <path d="M0 126H1280M0 254H1280M0 382H1280M0 510H1280" stroke="#94A3B8"/>
    <path d="M160 0V640M320 0V640M480 0V640M640 0V640M800 0V640M960 0V640M1120 0V640" stroke="#94A3B8"/>
  </g>

  <text x="640" y="86" text-anchor="middle" fill="#F8FAFC" font-family="Inter, Segoe UI, Arial, sans-serif" font-size="48" font-weight="800" letter-spacing="0">
    AI-Powered Third Brain V5
  </text>
  <text x="640" y="128" text-anchor="middle" fill="#C7D2FE" font-family="Inter, Segoe UI, Arial, sans-serif" font-size="24" font-weight="650" letter-spacing="0">
    Human Brain x LLM Wiki x Behavior Redesign
  </text>
  <text x="640" y="164" text-anchor="middle" fill="#94A3B8" font-family="Inter, Segoe UI, Arial, sans-serif" font-size="20" font-weight="450" letter-spacing="0">
    Turns knowledge from saved into executed, amplified value
  </text>

  <g filter="url(#softShadow)">
    <rect x="155" y="212" width="970" height="228" rx="28" fill="#0B1020" fill-opacity="0.52" stroke="url(#stroke)" stroke-opacity="0.72" stroke-width="1.5"/>
  </g>

  <path d="M367 302C419 222 517 198 590 240" stroke="url(#stroke)" stroke-width="3" stroke-linecap="round" opacity="0.86"/>
  <path d="M913 302C861 382 763 406 690 364" stroke="url(#stroke)" stroke-width="3" stroke-linecap="round" opacity="0.86"/>
  <path d="M584 222L615 256L569 259" stroke="#8B5CF6" stroke-width="3" stroke-linecap="round" stroke-linejoin="round" opacity="0.9"/>
  <path d="M696 382L665 348L711 345" stroke="#8B5CF6" stroke-width="3" stroke-linecap="round" stroke-linejoin="round" opacity="0.9"/>

  <g transform="translate(222 244)" filter="url(#iconGlow)">
    <circle cx="80" cy="80" r="70" fill="#082F49" fill-opacity="0.58" stroke="#38BDF8" stroke-opacity="0.82"/>
    <path d="M54 99C39 96 30 84 31 69C32 55 43 45 57 45C61 30 77 23 92 29C105 34 111 46 109 59C121 64 128 76 125 90C122 105 109 115 94 115H64C58 115 52 112 49 106" stroke="#BAE6FD" stroke-width="5" stroke-linecap="round" stroke-linejoin="round"/>
    <path d="M58 48V112M82 29V115M105 60C94 61 88 68 87 81M55 70C68 70 75 78 76 91" stroke="#38BDF8" stroke-width="4" stroke-linecap="round"/>
    <circle cx="56" cy="48" r="4" fill="#7DD3FC"/>
    <circle cx="82" cy="29" r="4" fill="#7DD3FC"/>
    <circle cx="105" cy="60" r="4" fill="#7DD3FC"/>
    <text x="80" y="174" text-anchor="middle" fill="#E0F2FE" font-family="Inter, Segoe UI, Arial, sans-serif" font-size="18" font-weight="700">Human Brain</text>
  </g>

  <g transform="translate(544 244)" filter="url(#iconGlow)">
    <circle cx="96" cy="80" r="76" fill="#2E1065" fill-opacity="0.56" stroke="#A78BFA" stroke-opacity="0.84"/>
    <rect x="48" y="38" width="96" height="84" rx="14" fill="#111827" fill-opacity="0.64" stroke="#C4B5FD" stroke-width="4"/>
    <path d="M74 58H118M74 80H118M74 102H104" stroke="#DDD6FE" stroke-width="5" stroke-linecap="round"/>
    <path d="M48 58C30 60 22 72 22 84C22 102 38 116 58 116M144 58C162 60 170 72 170 84C170 102 154 116 134 116" stroke="#8B5CF6" stroke-width="4" stroke-linecap="round"/>
    <text x="96" y="174" text-anchor="middle" fill="#EDE9FE" font-family="Inter, Segoe UI, Arial, sans-serif" font-size="18" font-weight="700">LLM Wiki</text>
    <text x="96" y="198" text-anchor="middle" fill="#C4B5FD" font-family="Inter, Segoe UI, Arial, sans-serif" font-size="14" font-weight="500">Knowledge OS</text>
  </g>

  <g transform="translate(874 244)" filter="url(#iconGlow)">
    <circle cx="80" cy="80" r="70" fill="#451A03" fill-opacity="0.5" stroke="#F59E0B" stroke-opacity="0.88"/>
    <path d="M59 82C47 70 48 51 61 39C73 28 92 28 104 40C116 52 116 70 103 82C96 89 94 95 94 103H68C68 95 66 89 59 82Z" stroke="#FDE68A" stroke-width="5" stroke-linejoin="round"/>
    <path d="M69 116H93M72 128H90M80 21V10M45 36L37 28M115 36L123 28M34 74H22M126 74H138" stroke="#F59E0B" stroke-width="5" stroke-linecap="round"/>
    <path d="M109 102H136M136 102L124 90M136 102L124 114" stroke="#FDBA74" stroke-width="5" stroke-linecap="round" stroke-linejoin="round"/>
    <text x="80" y="174" text-anchor="middle" fill="#FEF3C7" font-family="Inter, Segoe UI, Arial, sans-serif" font-size="18" font-weight="700">Creative Output</text>
  </g>

  <g>
    <text x="640" y="488" text-anchor="middle" fill="#E2E8F0" font-family="Inter, Segoe UI, Arial, sans-serif" font-size="18" font-weight="650">
      Input -> Cognitive OS -> Behavior -> Creativity -> Iteration
    </text>
  </g>

  <g font-family="Inter, Segoe UI, Arial, sans-serif" font-size="16" font-weight="700">
    <g transform="translate(175 522)">
      <rect width="210" height="54" rx="14" fill="url(#card)" stroke="#38BDF8" stroke-opacity="0.46"/>
      <text x="105" y="34" text-anchor="middle" fill="#E0F2FE">Knowledge Input</text>
    </g>
    <g transform="translate(407 522)">
      <rect width="210" height="54" rx="14" fill="url(#card)" stroke="#8B5CF6" stroke-opacity="0.5"/>
      <text x="105" y="34" text-anchor="middle" fill="#EDE9FE">Cognitive Compile</text>
    </g>
    <g transform="translate(639 522)">
      <rect width="210" height="54" rx="14" fill="url(#card)" stroke="#22C55E" stroke-opacity="0.46"/>
      <text x="105" y="34" text-anchor="middle" fill="#DCFCE7">Behavior Redesign</text>
    </g>
    <g transform="translate(871 522)">
      <rect width="210" height="54" rx="14" fill="url(#card)" stroke="#F59E0B" stroke-opacity="0.54"/>
      <text x="105" y="34" text-anchor="middle" fill="#FEF3C7">Creative Compounding</text>
    </g>
  </g>

  <text x="640" y="614" text-anchor="middle" fill="#F8FAFC" font-family="Inter, Segoe UI, Arial, sans-serif" font-size="22" font-weight="760" letter-spacing="0">
    From Knowledge Management -> Cognitive Augmentation -> Behavior Transformation -> Continuous Value Compounding
  </text>
</svg>
